<svg width="1280" height="720" xmlns="http://www.w3.org/2000/svg" xmlns:xlink="http://www.w3.org/1999/xlink" overflow="hidden"><defs><clipPath id="clip0"><rect x="0" y="0" width="1280" height="720"/></clipPath><clipPath id="clip1"><rect x="228" y="331" width="778" height="389"/></clipPath><clipPath id="clip2"><rect x="228" y="331" width="778" height="389"/></clipPath><clipPath id="clip3"><rect x="228" y="331" width="778" height="389"/></clipPath><clipPath id="clip4"><rect x="187" y="-25" width="848" height="424"/></clipPath><clipPath id="clip5"><rect x="187" y="-25" width="849" height="425"/></clipPath><clipPath id="clip6"><rect x="187" y="-25" width="849" height="425"/></clipPath></defs><g clip-path="url(#clip0)"><rect x="0" y="0" width="1280" height="720" fill="#D9D9D9"/><g clip-path="url(#clip1)"><g clip-path="url(#clip2)"><g clip-path="url(#clip3)"><path d="M341.519 389.344C341.519 398.85 333.812 406.557 324.306 406.557 314.799 406.557 307.092 398.851 307.092 389.344 307.092 379.837 314.799 372.13 324.306 372.13 333.812 372.13 341.519 379.837 341.519 389.344Z" fill="#8195A6"/><path d="M437.884 521.057C437.884 530.564 430.177 538.271 420.67 538.271 411.164 538.271 403.457 530.564 403.457 521.057 403.457 511.551 411.164 503.844 420.67 503.844 430.177 503.844 437.884 511.551 437.884 521.057Z" fill="#5BD9D9"/><path d="M404.686 615.424C404.686 624.931 396.98 632.638 387.473 632.638 377.966 632.638 370.259 624.931 370.259 615.424 370.259 605.917 377.966 598.211 387.473 598.211 396.98 598.211 404.686 605.917 404.686 615.424Z" fill="#D44FEA"/><path d="M434.656 434.837 265.442 486.323 265.442 530.125 434.656 478.792Z" fill="#8195A6"/><path d="M434.656 537.656 265.442 589.143 265.442 633.099 434.656 581.612Z" fill="#8195A6"/><path d="M265.442 383.35 434.656 434.837 434.656 478.792 265.442 427.306Z" fill="#00010D"/><path d="M265.442 486.323 434.656 537.656 434.656 581.612 265.442 530.125Z" fill="#00010D"/><path d="M265.442 589.143 434.656 640.476 434.656 684.432 265.442 633.099Z" fill="#00010D"/><path d="M497.619 511.727 511.908 547.388 526.196 511.727 533.67 511.727 533.67 555.433 527.907 555.433 527.907 538.412 528.447 520.042 514.099 555.433 509.686 555.433 495.368 520.132 495.938 538.412 495.938 555.433 490.175 555.433 490.175 511.727Z"/><path d="M585.427 544.026 567.116 544.026 563.004 555.433 557.06 555.433 573.75 511.727 578.793 511.727 595.513 555.433 589.6 555.433ZM568.857 539.283 583.716 539.283 576.272 518.841Z"/><path d="M634.333 537.752 624.066 537.752 624.066 555.433 618.273 555.433 618.273 511.727 632.742 511.727C637.664 511.727 641.447 512.847 644.088 515.089 646.75 517.33 648.081 520.592 648.081 524.874 648.081 527.596 647.34 529.967 645.859 531.989 644.398 534.01 642.357 535.521 639.736 536.521L650.002 555.072 650.002 555.433 643.818 555.433ZM624.066 533.039 632.922 533.039C635.783 533.039 638.055 532.299 639.736 530.818 641.437 529.337 642.287 527.356 642.287 524.874 642.287 522.173 641.477 520.102 639.856 518.661 638.255 517.22 635.933 516.489 632.892 516.469L624.066 516.469Z"/><path d="M673.062 555.433 673.062 511.727 687.35 511.727C692.093 511.727 695.655 512.707 698.036 514.668 700.438 516.63 701.639 519.531 701.639 523.374 701.639 525.415 701.058 527.226 699.898 528.807 698.737 530.368 697.156 531.578 695.155 532.439 697.516 533.099 699.377 534.36 700.738 536.221 702.119 538.062 702.809 540.264 702.809 542.825 702.809 546.747 701.539 549.829 698.997 552.071 696.456 554.312 692.863 555.433 688.221 555.433ZM678.825 534.99 678.825 550.72 688.341 550.72C691.022 550.72 693.134 550.029 694.674 548.649 696.235 547.248 697.016 545.327 697.016 542.885 697.016 537.622 694.154 534.99 688.431 534.99ZM678.825 530.368 687.53 530.368C690.052 530.368 692.063 529.737 693.564 528.477 695.085 527.216 695.845 525.505 695.845 523.344 695.845 520.942 695.145 519.201 693.744 518.12 692.343 517.02 690.212 516.469 687.35 516.469L678.825 516.469Z"/><path d="M734.034 550.72 754.746 550.72 754.746 555.433 728.24 555.433 728.24 511.727 734.034 511.727Z"/><path d="M802.931 535.231 783.99 535.231 783.99 550.72 805.993 550.72 805.993 555.433 778.226 555.433 778.226 511.727 805.693 511.727 805.693 516.469 783.99 516.469 783.99 530.518 802.931 530.518Z"/><path d="M846.853 537.242 834.156 537.242 834.156 555.433 830.433 555.433 830.433 511.727 844.632 511.727C849.295 511.727 852.937 512.857 855.558 515.119 858.18 517.38 859.491 520.542 859.491 524.604 859.491 527.406 858.67 529.877 857.029 532.019 855.388 534.16 853.187 535.641 850.425 536.461L861.352 555.042 861.352 555.433 857.42 555.433ZM834.156 534.09 845.472 534.09C848.574 534.09 851.066 533.209 852.947 531.448 854.828 529.687 855.769 527.406 855.769 524.604 855.769 521.522 854.788 519.131 852.827 517.43 850.866 515.729 848.114 514.878 844.572 514.878L834.156 514.878Z" fill="#00010D"/><path d="M916.561 511.727 916.561 541.564C916.541 544.506 915.891 547.068 914.61 549.249 913.329 551.43 911.518 553.111 909.176 554.292 906.855 555.453 904.183 556.033 901.162 556.033 896.559 556.033 892.867 554.782 890.085 552.281 887.323 549.759 885.893 546.277 885.792 541.835L885.792 511.727 889.455 511.727 889.455 541.294C889.455 544.976 890.505 547.838 892.606 549.879 894.708 551.901 897.559 552.911 901.162 552.911 904.764 552.911 907.605 551.891 909.687 549.849 911.788 547.808 912.839 544.966 912.839 541.324L912.839 511.727Z" fill="#00010D"/><path d="M976.302 555.433 972.61 555.433 947.485 518.03 947.485 555.433 943.763 555.433 943.763 511.727 947.485 511.727 972.64 549.159 972.64 511.727 976.302 511.727Z" fill="#00010D"/></g></g></g><g clip-path="url(#clip4)"><g clip-path="url(#clip5)"><g clip-path="url(#clip6)"><path d="M313.013 195.148 341.703 178.499 369.97 195.148 341.703 211.444 313.013 195.501ZM226.927 145.907 341.76 80.7173 427.125 129.251 398.859 178.492 341.831 145.9 255.759 194.787Z" fill="#F6BD3A"/><path d="M313.013 260.324 313.013 227.732 341.279 211.437 369.97 195.141 369.97 227.732 341.703 244.028 341.703 276.619 313.013 293.269ZM313.013 195.148 284.322 178.852 255.631 194.795 255.631 162.196 341.703 113.309 341.703 178.492ZM398.378 162.203 398.378 145.907 427.069 129.258 427.422 161.85 398.731 178.499Z" fill="#EB8C23"/><path d="M284.308 275.913 284.308 178.852 312.575 162.91 312.928 195.148 341.619 211.09 341.619 244.035 312.928 228.799 312.928 293.269ZM241.102 186.293 226.927 177.792 226.927 145.921 255.617 162.217 255.617 194.809 241.102 186.293ZM341.703 145.907 341.703 113.316 398.378 145.907 398.731 178.499 341.703 145.907Z" fill="#E35A2B"/><path d="M482.563 157.165 482.563 232.071 469.398 232.071 469.398 157.165 443.817 157.165 443.817 144.247 508.123 144.247 508.123 157.157ZM551.711 184.371C552.516 187.629 552.875 190.981 552.778 194.335L510.3 206.928C510.632 210.108 510.54 208.815 511.537 211.076 512.533 213.337 513.798 215.189 515.296 216.729 516.794 218.27 518.476 219.273 520.243 219.98 522.009 220.687 524.038 221.054 526.009 221.04 528.836 221.04 531.295 220.581 533.592 219.662 535.995 218.681 538.252 217.374 540.298 215.775L547.944 224.043C545.116 226.773 541.798 228.943 538.164 230.439 534.56 231.944 530.263 232.7 525.253 232.7 521.481 232.715 517.746 231.948 514.286 230.446 510.752 228.941 507.784 226.729 505.198 223.803 502.611 220.878 500.562 217.288 499.05 213.019 497.538 208.751 496.789 203.833 496.789 198.476 496.789 192.879 497.495 187.876 498.923 183.686 500.35 179.495 502.315 175.912 504.816 172.966 507.298 170.102 510.408 167.85 513.904 166.387 517.619 164.851 521.608 164.084 525.628 164.132 530.306 164.132 534.39 165.009 537.853 166.768 541.316 168.528 544.213 170.909 546.503 173.835 548.884 177.003 550.629 180.603 551.64 184.435ZM539.365 187.339C539.196 185.078 537.641 182.393 536.355 180.605 535.143 179.008 533.518 177.771 531.655 177.029 529.733 176.266 527.119 175.948 524.822 176.04 520.582 176.23 515.635 177.721 513.289 180.986 510.943 184.251 510.201 189.911 510.293 195.946ZM599.411 231.251 599.411 194.01C599.411 187.325 598.209 182.703 595.835 179.969 593.461 177.234 590.132 175.955 585.942 175.955 581.596 175.955 578.253 177.418 575.907 180.336 573.561 183.255 572.395 187.403 572.395 192.745L572.395 231.23 559.413 231.23 559.413 165.44 572.324 165.44 572.324 171.708C573.999 169.284 576.317 167.468 579.285 166.069 582.253 164.669 585.447 164.062 588.874 164.062 596.563 164.062 602.393 166.535 606.364 171.46 610.336 176.386 612.321 183.756 612.321 193.523L612.321 231.259 599.411 231.259ZM665.357 213.952C665.357 217.627 664.664 220.701 663.286 223.167 661.974 225.563 660.103 227.607 657.831 229.124 655.569 230.63 652.884 231.718 650.057 232.375 646.99 233.055 643.857 233.391 640.715 233.379 636.193 233.379 631.712 232.587 627.239 230.997 623.063 229.561 619.115 227.534 615.516 224.976L621.339 215.267C624.276 217.361 627.508 219.009 630.928 220.157 634.228 221.245 637.429 221.782 640.517 221.782 648.538 221.782 652.552 219.358 652.552 214.503 652.552 211.995 651.195 209.981 648.482 208.497 645.768 207.013 642.023 205.317 637.26 203.55 634.178 202.412 631.184 201.052 628.299 199.48 625.84 198.095 623.826 196.618 622.278 195.028 620.786 193.523 619.651 191.702 618.957 189.699 618.286 187.735 617.954 185.459 617.954 182.866 617.954 179.94 618.498 177.354 619.579 175.093 620.643 172.864 622.234 170.929 624.215 169.453 626.222 167.948 628.596 166.818 631.281 166.061 633.967 165.305 637.048 164.931 640.305 164.931 644.545 164.931 648.517 165.602 652.404 166.938 656.29 168.273 659.696 170.033 662.622 172.202L657.075 182.053C654.403 180.131 651.683 178.711 648.927 177.792 646.171 176.873 643.273 176.414 640.023 176.414 636.772 176.414 634.546 176.979 633.126 178.11 631.762 179.126 630.968 180.734 630.992 182.435 630.984 183.235 631.156 184.027 631.493 184.753 631.825 185.459 632.454 186.194 633.373 186.873 634.522 187.77 635.761 188.547 637.069 189.191 639.053 190.18 641.081 191.078 643.146 191.883L652.799 195.961C655.309 197.098 657.652 198.574 659.76 200.349 661.581 201.9 663.018 203.852 663.958 206.052 664.876 208.221 665.336 210.857 665.336 213.952ZM725.409 198.78C725.409 204.221 724.66 209.083 723.148 213.387 721.636 217.691 719.615 221.33 716.88 224.291 714.278 227.206 711.07 229.517 707.481 231.061 703.948 232.615 699.962 233.379 695.694 233.379 691.454 233.379 687.673 232.566 684.161 230.933 680.647 229.295 677.527 226.922 675.01 223.973 672.416 220.969 670.395 217.373 668.932 213.189 667.47 209.006 666.813 204.327 666.813 199.148 666.813 193.798 667.562 188.993 669.074 184.732 670.586 180.47 672.65 176.852 675.278 173.884 677.818 170.954 680.991 168.639 684.557 167.114 688.182 165.574 691.977 164.797 696.146 164.797 700.164 164.763 704.141 165.597 707.806 167.242 711.363 168.843 714.545 171.171 717.148 174.075 719.784 177.001 721.827 180.576 723.296 184.795 724.766 189.014 725.416 193.678 725.416 198.773ZM712.371 199.155C712.371 192.385 710.958 187.014 707.919 183.043 704.881 179.071 700.839 177.085 695.574 177.085 690.938 176.924 686.551 179.179 683.985 183.043 681.193 187.021 679.787 192.258 679.787 198.78 679.787 206.059 681.292 211.585 684.31 215.387 687.124 219.1 691.559 221.225 696.217 221.09 698.641 221.09 700.853 220.503 702.86 219.337 704.884 218.15 706.634 216.548 707.997 214.638 709.486 212.528 710.589 210.172 711.255 207.677 712.004 205.006 712.385 202.165 712.385 199.155ZM767.032 179.849C765.637 179.107 764.165 178.52 762.644 178.096 761.138 177.672 759.301 177.389 757.132 177.389 753.033 177.389 749.853 178.803 747.606 181.651 745.359 184.498 744.214 188.717 744.214 194.314L744.214 231.923 731.303 231.923 731.303 166.104 744.214 166.104 744.214 172.372C745.831 170.098 747.956 168.23 750.418 166.917 753.127 165.435 756.172 164.681 759.259 164.726 761.93 164.726 764.205 164.959 765.831 165.418 767.461 165.845 769.007 166.545 770.403 167.489L767.011 179.785Z" fill="#EF6639"/><path d="M788.713 157.165 788.713 180.11 813.912 180.11 813.912 193.021 788.713 193.021 788.713 232.008 775.547 232.008 775.547 144.247 832.081 144.247 832.081 157.157ZM834.222 232.001 834.222 147.384 847.133 140.614 847.133 232.015ZM913.086 198.787C913.086 204.229 912.33 209.09 910.825 213.394 909.319 217.698 907.221 221.337 904.556 224.298 901.953 227.214 898.742 229.525 895.151 231.068 891.547 232.622 887.632 233.386 883.363 233.386 879.194 233.386 875.343 232.573 871.831 230.941 868.319 229.308 865.273 226.983 862.679 223.98 860.086 220.977 858.065 217.38 856.602 213.196 855.139 209.013 854.482 204.335 854.482 199.155 854.482 193.805 855.231 189 856.743 184.739 858.256 180.477 860.319 176.859 862.948 173.891 865.577 170.923 868.601 168.662 872.226 167.121 875.852 165.581 879.646 164.804 883.816 164.804 887.985 164.804 891.872 165.616 895.476 167.249 899.032 168.851 902.214 171.178 904.818 174.082 907.454 177.008 909.496 180.583 910.966 184.802 912.436 189.021 913.086 193.685 913.086 198.78ZM900.048 199.162C900.048 192.392 898.635 187.021 895.596 183.05 892.557 179.078 888.515 177.093 883.25 177.093 878.318 177.093 874.452 179.071 871.661 183.05 868.87 187.028 867.463 192.265 867.463 198.787 867.463 206.066 868.969 211.592 871.986 215.394 874.8 219.107 879.236 221.232 883.893 221.097 886.225 221.122 888.52 220.517 890.536 219.344 892.56 218.157 894.311 216.555 895.674 214.645 897.087 212.68 898.182 210.362 898.924 207.684 899.666 205.006 900.055 202.172 900.055 199.162ZM976.771 232.008 965.747 232.008 956.843 198.794 954.899 191.092 953.458 184.76 952.016 191.155 950.073 198.929 941.296 232.029 930.272 232.029 912.217 166.21 924.937 166.21 932.71 198.179 934.59 206.08 935.968 212.603 937.593 206.08 939.6 198.179 948.377 166.21 958.786 166.21 967.69 198.307 969.633 206.151 971.202 212.61 972.644 206.038 974.46 198.194 982.233 166.224 994.953 166.224Z" fill="#A6A7A9"/></g></g></g><path d="M213.5 326.5 1099.36 326.5" stroke="#A6A6A6" stroke-width="3.33333" stroke-miterlimit="8" fill="none" fill-rule="evenodd"/></g></svg>