<svg width="1280" height="720" xmlns="http://www.w3.org/2000/svg" xmlns:xlink="http://www.w3.org/1999/xlink" overflow="hidden"><defs><clipPath id="clip0"><rect x="0" y="0" width="1280" height="720"/></clipPath><clipPath id="clip1"><rect x="228" y="331" width="778" height="389"/></clipPath><clipPath id="clip2"><rect x="228" y="331" width="778" height="389"/></clipPath><clipPath id="clip3"><rect x="228" y="331" width="778" height="389"/></clipPath><clipPath id="clip4"><rect x="187" y="44" width="848" height="285"/></clipPath><clipPath id="clip5"><rect x="187" y="44" width="848" height="286"/></clipPath><clipPath id="clip6"><rect x="187" y="44" width="848" height="286"/></clipPath><clipPath id="clip7"><path d="M379.447 153.745 324.88 122.544 324.88 250.468 346.679 237.792 346.679 201.797 363.144 211.338 363.057 186.729 346.679 177.362 346.679 163.063 379.521 182.058 379.447 153.745Z"/></clipPath><linearGradient x1="73.3591" y1="142.051" x2="207.376" y2="142.051" gradientUnits="userSpaceOnUse" spreadMethod="pad" id="fill8"><stop offset="0" stop-color="#FF6F00"/><stop offset="1" stop-color="#FFA800"/></linearGradient><clipPath id="clip9"><path d="M265.397 153.745 319.977 122.544 319.977 250.468 298.178 237.792 298.178 163.063 265.323 182.058 265.397 153.745Z"/></clipPath><linearGradient x1="72.4555" y1="142.051" x2="206.473" y2="142.051" gradientUnits="userSpaceOnUse" spreadMethod="pad" id="fill10"><stop offset="0" stop-color="#FF6F00"/><stop offset="1" stop-color="#FFA800"/></linearGradient></defs><g clip-path="url(#clip0)"><rect x="0" y="0" width="1280" height="720" fill="#D9D9D9"/><g clip-path="url(#clip1)"><g clip-path="url(#clip2)"><g clip-path="url(#clip3)"><path d="M341.519 389.344C341.519 398.85 333.812 406.557 324.306 406.557 314.799 406.557 307.092 398.851 307.092 389.344 307.092 379.837 314.799 372.13 324.306 372.13 333.812 372.13 341.519 379.837 341.519 389.344Z" fill="#8195A6"/><path d="M437.884 521.057C437.884 530.564 430.177 538.271 420.67 538.271 411.164 538.271 403.457 530.564 403.457 521.057 403.457 511.551 411.164 503.844 420.67 503.844 430.177 503.844 437.884 511.551 437.884 521.057Z" fill="#5BD9D9"/><path d="M404.686 615.424C404.686 624.931 396.98 632.638 387.473 632.638 377.966 632.638 370.259 624.931 370.259 615.424 370.259 605.917 377.966 598.211 387.473 598.211 396.98 598.211 404.686 605.917 404.686 615.424Z" fill="#D44FEA"/><path d="M434.656 434.837 265.442 486.323 265.442 530.125 434.656 478.792Z" fill="#8195A6"/><path d="M434.656 537.656 265.442 589.143 265.442 633.099 434.656 581.612Z" fill="#8195A6"/><path d="M265.442 383.35 434.656 434.837 434.656 478.792 265.442 427.306Z" fill="#00010D"/><path d="M265.442 486.323 434.656 537.656 434.656 581.612 265.442 530.125Z" fill="#00010D"/><path d="M265.442 589.143 434.656 640.476 434.656 684.432 265.442 633.099Z" fill="#00010D"/><path d="M497.619 511.727 511.908 547.388 526.196 511.727 533.67 511.727 533.67 555.433 527.907 555.433 527.907 538.412 528.447 520.042 514.099 555.433 509.686 555.433 495.368 520.132 495.938 538.412 495.938 555.433 490.175 555.433 490.175 511.727Z"/><path d="M585.427 544.026 567.116 544.026 563.004 555.433 557.06 555.433 573.75 511.727 578.793 511.727 595.513 555.433 589.6 555.433ZM568.857 539.283 583.716 539.283 576.272 518.841Z"/><path d="M634.333 537.752 624.066 537.752 624.066 555.433 618.273 555.433 618.273 511.727 632.742 511.727C637.664 511.727 641.447 512.847 644.088 515.089 646.75 517.33 648.081 520.592 648.081 524.874 648.081 527.596 647.34 529.967 645.859 531.989 644.398 534.01 642.357 535.521 639.736 536.521L650.002 555.072 650.002 555.433 643.818 555.433ZM624.066 533.039 632.922 533.039C635.783 533.039 638.055 532.299 639.736 530.818 641.437 529.337 642.287 527.356 642.287 524.874 642.287 522.173 641.477 520.102 639.856 518.661 638.255 517.22 635.933 516.489 632.892 516.469L624.066 516.469Z"/><path d="M673.062 555.433 673.062 511.727 687.35 511.727C692.093 511.727 695.655 512.707 698.036 514.668 700.438 516.63 701.639 519.531 701.639 523.374 701.639 525.415 701.058 527.226 699.898 528.807 698.737 530.368 697.156 531.578 695.155 532.439 697.516 533.099 699.377 534.36 700.738 536.221 702.119 538.062 702.809 540.264 702.809 542.825 702.809 546.747 701.539 549.829 698.997 552.071 696.456 554.312 692.863 555.433 688.221 555.433ZM678.825 534.99 678.825 550.72 688.341 550.72C691.022 550.72 693.134 550.029 694.674 548.649 696.235 547.248 697.016 545.327 697.016 542.885 697.016 537.622 694.154 534.99 688.431 534.99ZM678.825 530.368 687.53 530.368C690.052 530.368 692.063 529.737 693.564 528.477 695.085 527.216 695.845 525.505 695.845 523.344 695.845 520.942 695.145 519.201 693.744 518.12 692.343 517.02 690.212 516.469 687.35 516.469L678.825 516.469Z"/><path d="M734.034 550.72 754.746 550.72 754.746 555.433 728.24 555.433 728.24 511.727 734.034 511.727Z"/><path d="M802.931 535.231 783.99 535.231 783.99 550.72 805.993 550.72 805.993 555.433 778.226 555.433 778.226 511.727 805.693 511.727 805.693 516.469 783.99 516.469 783.99 530.518 802.931 530.518Z"/><path d="M846.853 537.242 834.156 537.242 834.156 555.433 830.433 555.433 830.433 511.727 844.632 511.727C849.295 511.727 852.937 512.857 855.558 515.119 858.18 517.38 859.491 520.542 859.491 524.604 859.491 527.406 858.67 529.877 857.029 532.019 855.388 534.16 853.187 535.641 850.425 536.461L861.352 555.042 861.352 555.433 857.42 555.433ZM834.156 534.09 845.472 534.09C848.574 534.09 851.066 533.209 852.947 531.448 854.828 529.687 855.769 527.406 855.769 524.604 855.769 521.522 854.788 519.131 852.827 517.43 850.866 515.729 848.114 514.878 844.572 514.878L834.156 514.878Z" fill="#00010D"/><path d="M916.561 511.727 916.561 541.564C916.541 544.506 915.891 547.068 914.61 549.249 913.329 551.43 911.518 553.111 909.176 554.292 906.855 555.453 904.183 556.033 901.162 556.033 896.559 556.033 892.867 554.782 890.085 552.281 887.323 549.759 885.893 546.277 885.792 541.835L885.792 511.727 889.455 511.727 889.455 541.294C889.455 544.976 890.505 547.838 892.606 549.879 894.708 551.901 897.559 552.911 901.162 552.911 904.764 552.911 907.605 551.891 909.687 549.849 911.788 547.808 912.839 544.966 912.839 541.324L912.839 511.727Z" fill="#00010D"/><path d="M976.302 555.433 972.61 555.433 947.485 518.03 947.485 555.433 943.763 555.433 943.763 511.727 947.485 511.727 972.64 549.159 972.64 511.727 976.302 511.727Z" fill="#00010D"/></g></g></g><g clip-path="url(#clip4)"><g clip-path="url(#clip5)"><g clip-path="url(#clip6)"><g clip-path="url(#clip7)"><path d="M73.3591 77.8404 207.376 77.8404 207.376 206.275 73.3591 206.275Z" fill="url(#fill8)" transform="matrix(1 0 0 1.00095 187 44.159)"/></g><g clip-path="url(#clip9)"><path d="M72.4555 77.8404 206.473 77.8404 206.473 206.275 72.4555 206.275Z" fill="url(#fill10)" transform="matrix(1 0 0 1.00095 187 44.159)"/></g><path d="M291.444 117.912 267.032 117.912 267.032 185.242 253.526 185.242 253.526 117.912 229.325 117.912 229.325 106.944 291.444 106.944Z" fill="#425066" transform="matrix(1 0 0 1.00095 187 44.159)"/><path d="M307.648 186.319C299.395 186.319 292.681 183.711 287.507 178.496 282.332 173.28 279.753 166.335 279.77 157.661L279.77 156.04C279.679 150.659 280.831 145.33 283.137 140.467 285.21 136.09 288.481 132.39 292.57 129.796 296.647 127.239 301.375 125.915 306.187 125.983 314.11 125.983 320.233 128.508 324.558 133.559 328.882 138.61 331.045 145.765 331.045 155.025L331.045 160.286 292.966 160.286C293.119 164.548 294.833 168.606 297.782 171.687 300.595 174.487 304.436 176.004 308.403 175.884 314.193 176.015 319.681 173.306 323.097 168.629L330.141 175.351C327.803 178.83 324.582 181.625 320.807 183.447 316.704 185.417 312.198 186.4 307.648 186.319ZM306.088 136.468C302.788 136.342 299.607 137.705 297.423 140.182 295.012 143.184 293.543 146.832 293.201 150.667L318.145 150.667 318.145 149.788C317.861 145.418 316.697 142.101 314.642 139.885 312.436 137.537 309.304 136.286 306.088 136.468Z" fill="#425066" transform="matrix(1 0 0 1.00095 187 44.159)"/><path d="M353.253 127.048 353.637 133.782C357.745 128.669 364.015 125.781 370.571 125.983 382.686 125.983 388.855 132.92 389.078 146.793L389.078 185.242 376.006 185.242 376.006 147.548C376.006 143.834 375.214 141.123 373.617 139.34 372.02 137.558 369.408 136.679 365.793 136.679 360.793 136.516 356.17 139.323 354.008 143.834L354.008 185.242 340.936 185.242 340.936 127.06Z" fill="#425066" transform="matrix(1 0 0 1.00095 187 44.159)"/><path d="M431.477 169.434C431.567 167.268 430.465 165.225 428.605 164.111 425.624 162.515 422.399 161.423 419.061 160.88 415.218 160.145 411.478 158.952 407.919 157.327 401.4 154.183 398.14 149.615 398.14 143.623 398.112 138.653 400.469 133.971 404.478 131.034 408.712 127.667 414.076 125.983 420.571 125.983 427.528 125.983 433.148 127.704 437.431 131.145 441.589 134.322 443.977 139.296 443.856 144.527L430.796 144.527C430.843 142.127 429.818 139.83 427.998 138.263 425.923 136.532 423.27 135.648 420.571 135.787 418.078 135.679 415.616 136.378 413.552 137.781 411.805 138.982 410.781 140.984 410.828 143.104 410.757 144.994 411.701 146.779 413.304 147.783 414.988 148.897 418.392 150.011 423.517 151.15 427.701 151.957 431.759 153.314 435.587 155.186 438.202 156.472 440.444 158.407 442.098 160.806 443.576 163.192 444.317 165.961 444.228 168.766 444.316 173.825 441.873 178.594 437.716 181.479 433.383 184.722 427.689 186.344 420.67 186.344 416.283 186.425 411.931 185.546 407.919 183.769 404.439 182.232 401.444 179.775 399.254 176.664 397.228 173.823 396.138 170.422 396.134 166.934L408.835 166.934C408.857 169.713 410.142 172.333 412.326 174.052 414.82 175.812 417.832 176.684 420.88 176.527 424.322 176.527 426.938 175.871 428.729 174.559 430.456 173.428 431.491 171.498 431.477 169.434Z" fill="#425066" transform="matrix(1 0 0 1.00095 187 44.159)"/><path d="M451.061 155.607C450.977 150.279 452.138 145.006 454.453 140.207 456.527 135.837 459.837 132.17 463.972 129.66 468.236 127.147 473.112 125.861 478.06 125.946 485.908 125.946 492.284 128.471 497.186 133.522 502.088 138.573 504.729 145.278 505.109 153.638L505.17 156.708C505.259 162.015 504.128 167.271 501.865 172.071 499.81 176.423 496.516 180.07 492.395 182.556 488.088 185.085 483.165 186.37 478.171 186.27 469.919 186.27 463.345 183.538 458.451 178.075 453.557 172.611 451.082 165.324 451.024 156.213ZM464.133 156.745C464.133 162.72 465.371 167.408 467.847 170.808 472.196 176.485 480.324 177.562 486.001 173.213 486.933 172.498 487.764 171.66 488.471 170.722 490.947 167.28 492.185 162.242 492.185 155.607 492.185 149.731 490.922 145.072 488.397 141.63 484.184 135.962 476.174 134.781 470.505 138.994 469.531 139.718 468.666 140.576 467.934 141.544 465.392 144.936 464.125 150.003 464.133 156.745Z" fill="#425066" transform="matrix(1 0 0 1.00095 187 44.159)"/><path d="M544.487 138.994C542.727 138.704 540.947 138.559 539.164 138.56 533.172 138.56 529.137 140.855 527.057 145.443L527.057 185.242 513.984 185.242 513.984 127.06 526.463 127.06 526.797 133.572C529.941 128.521 534.315 125.995 539.919 125.995 541.491 125.947 543.058 126.2 544.536 126.738Z" fill="#425066" transform="matrix(1 0 0 1.00095 187 44.159)"/><path d="M599.153 152.066 567.611 152.066 567.611 185.242 553.994 185.242 553.994 106.944 603.746 106.944 603.746 117.912 567.599 117.912 567.599 141.197 599.153 141.197Z" fill="#425066" transform="matrix(1 0 0 1.00095 187 44.159)"/><path d="M624.952 185.242 611.879 185.242 611.879 106.771 624.952 106.771Z" fill="#425066" transform="matrix(1 0 0 1.00095 187 44.159)"/><path d="M634.521 155.607C634.436 150.279 635.598 145.006 637.913 140.207 639.987 135.837 643.297 132.17 647.432 129.66 651.696 127.148 656.571 125.863 661.52 125.946 669.376 125.946 675.752 128.471 680.646 133.522 685.539 138.573 688.185 145.278 688.581 153.638L688.581 156.708C688.685 162.011 687.571 167.267 685.325 172.071 683.274 176.425 679.978 180.074 675.855 182.556 671.548 185.085 666.624 186.37 661.631 186.27 653.428 186.27 646.859 183.538 641.923 178.075 636.988 172.611 634.512 165.324 634.496 156.213ZM647.593 156.745C647.593 162.72 648.831 167.408 651.307 170.808 653.667 174.139 657.552 176.049 661.631 175.884 665.723 176.044 669.61 174.095 671.931 170.722 674.406 167.28 675.644 162.242 675.644 155.607 675.644 149.731 674.378 145.072 671.844 141.63 667.631 135.962 659.621 134.781 653.953 138.994 652.979 139.718 652.113 140.576 651.381 141.544 648.856 144.936 647.593 150.003 647.593 156.745Z" fill="#425066" transform="matrix(1 0 0 1.00095 187 44.159)"/><path d="M747.605 167.231 756.864 127.048 769.603 127.048 753.745 185.23 742.987 185.23 730.509 145.27 718.241 185.23 707.484 185.23 691.564 127.048 704.377 127.048 713.785 166.797 725.731 127.048 735.572 127.048Z" fill="#425066" transform="matrix(1 0 0 1.00095 187 44.159)"/></g></g></g><path d="M213.5 326.5 1099.36 326.5" stroke="#A6A6A6" stroke-width="3.33333" stroke-miterlimit="8" fill="none" fill-rule="evenodd"/></g></svg>