<svg width="1280" height="720" xmlns="http://www.w3.org/2000/svg" xmlns:xlink="http://www.w3.org/1999/xlink" overflow="hidden"><defs><clipPath id="clip0"><rect x="0" y="0" width="1280" height="720"/></clipPath><clipPath id="clip1"><rect x="1099" y="216" width="51" height="51"/></clipPath><clipPath id="clip2"><rect x="1099" y="216" width="51" height="51"/></clipPath><clipPath id="clip3"><rect x="1099" y="216" width="51" height="51"/></clipPath></defs><g clip-path="url(#clip0)"><rect x="0" y="0" width="1280" height="720" fill="#FFFFFF"/><path d="M333.5 212.501C333.5 166.661 370.661 129.5 416.501 129.5L801.499 129.5C847.339 129.5 884.5 166.661 884.5 212.501L884.5 544.499C884.5 590.339 847.339 627.5 801.499 627.5L416.501 627.5C370.661 627.5 333.5 590.339 333.5 544.499Z" stroke="#B2B2B2" stroke-width="1.33333" stroke-miterlimit="8" fill="#F2F2F2" fill-rule="evenodd"/><path d="M374.5 192.167C374.5 171.917 390.917 155.5 411.167 155.5L557.833 155.5C578.084 155.5 594.5 171.917 594.5 192.167L594.5 381.833C594.5 402.084 578.084 418.5 557.833 418.5L411.167 418.5C390.917 418.5 374.5 402.084 374.5 381.833Z" stroke="#00010D" stroke-width="2.66667" stroke-miterlimit="8" fill="#BFBFBF" fill-rule="evenodd"/><path d="M400 190.834C400 186.507 403.507 183 407.833 183L562.167 183C566.493 183 570 186.507 570 190.834L570 222.166C570 226.493 566.493 230 562.167 230L407.833 230C403.507 230 400 226.493 400 222.166Z" fill="#D44FEA" fill-rule="evenodd"/><text fill="#FFFFFF" font-family="Roboto Light,Roboto Light_MSFontService,sans-serif" font-weight="700" font-size="19" transform="translate(413.503 213)">MARBLERUN</text><path d="M401 317.333C401 311.626 405.626 307 411.333 307L560.667 307C566.374 307 571 311.626 571 317.333L571 358.667C571 364.374 566.374 369 560.667 369L411.333 369C405.626 369 401 364.374 401 358.667Z" fill="#D44FEA" fill-rule="evenodd"/><text fill="#FFFFFF" font-family="Roboto Light,Roboto Light_MSFontService,sans-serif" font-weight="700" font-size="19" transform="translate(438.241 334)">TensorFlow <tspan font-size="19" x="17.6667" y="22">Serving</tspan><tspan fill="#00010D" font-size="19" x="8.71298" y="67">Intel SGX</tspan></text><path d="M722 473.989C722 479.505 748.863 483.977 782 483.977 815.137 483.977 842 479.505 842 473.989L842 589.011C842 594.528 815.137 599 782 599 748.863 599 722 594.528 722 589.011Z" fill="#BFBFBF" fill-rule="evenodd"/><path d="M722 473.989C722 468.472 748.863 464 782 464 815.137 464 842 468.472 842 473.989 842 479.505 815.137 483.977 782 483.977 748.863 483.977 722 479.505 722 473.989Z" fill="#D9D9D9" fill-rule="evenodd"/><text fill="#00010D" font-family="Roboto Light,Roboto Light_MSFontService,sans-serif" font-weight="700" font-size="19" transform="translate(734.145 543)">File Storage<tspan font-size="19" x="-156.93" y="69">Kubernetes</tspan></text><path d="M486 229.99 486.674 300.307 484.674 300.327 484 230.01ZM489.661 298.945 485.738 306.983 481.662 299.022Z" fill="#00010D"/><path d="M722.025 532.236 645.012 532.236 645.012 347 646.012 348 576.667 348 576.667 346 647.012 346 647.012 531.236 646.012 530.236 722.025 530.236ZM578 351 570 347 578 343Z" fill="#00010D"/><rect x="597" y="389" width="115" height="68" fill="#F2F2F2"/><text fill="#00010D" font-family="Roboto Light,Roboto Light_MSFontService,sans-serif" font-weight="300" font-size="16" transform="translate(622.208 409)">6<tspan font-size="16" x="8.83337" y="0">. </tspan><tspan font-size="16" x="16.5" y="0">Secure </tspan><tspan font-size="16" x="10.6667" y="19">Model </tspan><tspan font-size="16" x="7" y="39">Access</tspan></text><rect x="389" y="239" width="189" height="38" fill="#BFBFBF"/><text fill="#00010D" font-family="Roboto Light,Roboto Light_MSFontService,sans-serif" font-weight="300" font-size="12" transform="translate(419.454 255)">4/5. <tspan font-size="12" x="24" y="0">Attestation &amp; Secret </tspan><tspan font-size="12" x="31.92" y="15">Provisioning</tspan></text><rect x="17" y="471" width="184" height="128" stroke="#00010D" stroke-width="2" stroke-miterlimit="8" stroke-dasharray="8 6" fill="#F2F2F2"/><text fill="#00010D" font-family="Roboto Light,Roboto Light_MSFontService,sans-serif" font-weight="700" font-size="21" transform="translate(48.3096 522)">Model Owner</text><path d="M197.001 205 393.085 205.208 393.083 207.208 196.999 207ZM391.754 202.207 399.75 206.215 391.746 210.207Z" fill="#00010D"/><text fill="#00010D" font-family="Roboto Light,Roboto Light_MSFontService,sans-serif" font-weight="300" font-size="19" transform="translate(722.2 61)">7. <tspan font-size="19" x="19.3334" y="0">Attestation &amp; </tspan><tspan font-size="19" x="15.8334" y="22">Certificates</tspan></text><rect x="21" y="169" width="184" height="75" stroke="#00010D" stroke-width="2" stroke-miterlimit="8" stroke-dasharray="8 6" fill="#F2F2F2"/><text fill="#00010D" font-family="Roboto Light,Roboto Light_MSFontService,sans-serif" font-weight="700" font-size="21" transform="translate(50.5298 214)">Administrator<tspan font-weight="300" font-size="16" x="175.733" y="-17">2/3. </tspan><tspan font-weight="300" font-size="16" x="207.399" y="-17">Deploy</tspan><tspan font-weight="300" font-size="16" x="353.967" y="328">1. Encrypt &amp; Upload</tspan></text><path d="M484 176.335 484 104.175 1128.1 104.175 1128.1 153 1126.1 153 1126.1 105.175 1127.1 106.175 485 106.175 486 105.175 486 176.335ZM489 175.002 485 183.002 481 175.002Z" fill="#00010D"/><rect x="1037" y="142" width="177" height="188" stroke="#00010D" stroke-width="2" stroke-miterlimit="8" stroke-dasharray="8 6" fill="#F2F2F2"/><text fill="#00010D" font-family="Roboto Light,Roboto Light_MSFontService,sans-serif" font-weight="700" font-size="21" transform="translate(1099.72 205)">Client</text><path d="M6.66669-1 234.402-1 234.402 101.58 233.402 100.58 460.138 100.58 460.138 102.58 232.402 102.58 232.402 0 233.402 1 6.66669 1ZM8 4 0 0 8-4ZM458.805 97.5803 466.805 101.58 458.805 105.58Z" fill="#00010D" transform="matrix(1 0 0 -1 571 337.58)"/><rect x="743" y="244" width="115" height="48" fill="#F2F2F2"/><text fill="#00010D" font-family="Roboto Light,Roboto Light_MSFontService,sans-serif" font-weight="300" font-size="16" transform="translate(767.7 263)">8<tspan font-size="16" x="8.83337" y="0">. </tspan><tspan font-size="16" x="16.5" y="0">Secure </tspan><tspan font-size="16" x="-7" y="19">Predictions</tspan></text><g clip-path="url(#clip1)"><g clip-path="url(#clip2)"><g clip-path="url(#clip3)"><path d="M1141.5 226.625C1141.5 224.571 1139.84 222.905 1137.78 222.903 1135.73 222.901 1134.06 224.565 1134.06 226.619 1134.06 227.877 1134.7 229.051 1135.75 229.738L1133 237.781 1133 237.781C1132.24 237.78 1131.5 238.012 1130.88 238.445L1125.33 234.286C1126.04 232.359 1125.05 230.22 1123.13 229.509 1121.2 228.798 1119.06 229.783 1118.35 231.71 1117.76 233.318 1118.34 235.123 1119.76 236.081L1116.22 247.344 1116 247.344C1113.95 247.339 1112.28 249 1112.27 251.054 1112.27 253.107 1113.93 254.776 1115.98 254.781 1118.04 254.786 1119.7 253.125 1119.71 251.071 1119.71 249.895 1119.16 248.786 1118.22 248.082L1121.79 236.719 1121.84 236.719C1122.64 236.717 1123.41 236.46 1124.05 235.986L1129.55 240.103C1129.38 240.547 1129.28 241.021 1129.28 241.5 1129.28 243.554 1130.94 245.219 1133 245.22 1135.05 245.221 1136.72 243.557 1136.72 241.503 1136.72 240.249 1136.09 239.08 1135.04 238.392L1137.78 230.344C1139.84 230.344 1141.5 228.679 1141.5 226.625Z"/><path d="M1109.62 222.906 1106.44 222.906 1106.44 260.094 1143.09 260.094 1143.09 256.906 1109.62 256.906 1109.62 222.906Z"/></g></g></g><path d="M1080 275.245C1080 277.59 1101.71 279.49 1128.5 279.49 1155.29 279.49 1177 277.59 1177 275.245L1177 317.755C1177 320.099 1155.29 322 1128.5 322 1101.71 322 1080 320.099 1080 317.755Z" fill="#5BD9D9" fill-rule="evenodd"/><path d="M1080 275.245C1080 272.901 1101.71 271 1128.5 271 1155.29 271 1177 272.901 1177 275.245 1177 277.59 1155.29 279.49 1128.5 279.49 1101.71 279.49 1080 277.59 1080 275.245Z" fill="#9DE8E8" fill-rule="evenodd"/><text fill="#FFFFFF" font-family="Roboto Light,Roboto Light_MSFontService,sans-serif" font-weight="700" font-size="21" transform="translate(1107.2 306)">Data</text><path d="M68 538.834C68 534.507 71.5072 531 75.8335 531L138.166 531C142.493 531 146 534.507 146 538.834L146 570.166C146 574.493 142.493 578 138.166 578L75.8335 578C71.5072 578 68 574.493 68 570.166Z" stroke="#FFFFFF" stroke-width="2" stroke-miterlimit="8" fill="#5BD9D9" fill-rule="evenodd"/><text fill="#FFFFFF" font-family="Roboto Light,Roboto Light_MSFontService,sans-serif" font-weight="700" font-size="19" transform="translate(81.8287 562)">Model</text><path d="M0.00521541-0.999986 569.293 1.96913 569.283 3.9691-0.00521541 0.999986ZM567.976-1.03778 575.955 3.00388 567.934 6.96211Z" fill="#00010D" transform="matrix(1 0 0 -1 146 555.004)"/></g></svg>